<?xml version="1.0" encoding="UTF-8" standalone="no"?>
<!DOCTYPE svg PUBLIC "-//W3C//DTD SVG 1.1//EN" "http://www.w3.org/Graphics/SVG/1.1/DTD/svg11.dtd">
<svg width="100%" height="100%" viewBox="0 0 500 100" version="1.1" xmlns="http://www.w3.org/2000/svg" xmlns:xlink="http://www.w3.org/1999/xlink" xml:space="preserve" xmlns:serif="http://www.serif.com/" style="fill-rule:evenodd;clip-rule:evenodd;stroke-linecap:round;stroke-linejoin:round;stroke-miterlimit:1.5;">
    <g transform="matrix(1,0,0,1,-101.129,-161.873)">
        <g transform="matrix(5.07875,0,0,5.07875,-1278.6,-893.854)">
            <clipPath id="_clip1">
                <path d="M322.534,210.831L367.177,210.831L367.177,223.253L282.872,223.253L282.872,210.831L319.99,210.831L319.99,213.862L322.534,213.862L322.534,210.831Z"/>
            </clipPath>
            <g clip-path="url(#_clip1)">
                <g transform="matrix(12,0,0,12,284.009,220.811)">
                    <path d="M0.282,-0.509C0.332,-0.509 0.373,-0.494 0.404,-0.463C0.435,-0.432 0.451,-0.391 0.451,-0.34L0.451,-0.01C0.451,-0.003 0.448,0 0.441,0L0.422,0C0.415,0 0.412,-0.003 0.412,-0.01L0.412,-0.333C0.412,-0.374 0.399,-0.408 0.374,-0.435C0.349,-0.461 0.316,-0.474 0.275,-0.474C0.232,-0.474 0.197,-0.461 0.171,-0.436C0.144,-0.41 0.131,-0.376 0.131,-0.335L0.131,-0.01C0.131,-0.003 0.128,0 0.121,0L0.102,0C0.095,0 0.092,-0.003 0.092,-0.01L0.092,-0.492C0.092,-0.499 0.095,-0.502 0.102,-0.502L0.121,-0.502C0.128,-0.502 0.131,-0.499 0.131,-0.492L0.131,-0.438C0.131,-0.436 0.132,-0.435 0.133,-0.435C0.134,-0.434 0.134,-0.435 0.135,-0.436C0.15,-0.459 0.17,-0.477 0.195,-0.49C0.22,-0.503 0.249,-0.509 0.282,-0.509Z" style="fill-rule:nonzero;"/>
                </g>
                <g transform="matrix(12,0,0,12,290.333,220.811)">
                    <path d="M0.266,0.008C0.22,0.008 0.181,-0.004 0.149,-0.029C0.117,-0.053 0.095,-0.085 0.084,-0.126C0.08,-0.141 0.078,-0.159 0.077,-0.178C0.076,-0.197 0.075,-0.221 0.075,-0.252C0.075,-0.283 0.076,-0.308 0.077,-0.327C0.078,-0.346 0.08,-0.362 0.084,-0.377C0.095,-0.417 0.116,-0.449 0.149,-0.473C0.181,-0.498 0.22,-0.51 0.267,-0.51C0.314,-0.51 0.354,-0.498 0.387,-0.473C0.42,-0.449 0.441,-0.417 0.45,-0.377C0.453,-0.362 0.456,-0.346 0.457,-0.328C0.458,-0.31 0.458,-0.285 0.458,-0.252C0.458,-0.218 0.458,-0.192 0.457,-0.174C0.456,-0.157 0.453,-0.141 0.45,-0.126C0.44,-0.085 0.419,-0.053 0.386,-0.029C0.353,-0.004 0.313,0.008 0.266,0.008ZM0.266,-0.027C0.305,-0.027 0.337,-0.038 0.364,-0.059C0.39,-0.08 0.407,-0.107 0.414,-0.141C0.416,-0.151 0.417,-0.166 0.418,-0.187C0.419,-0.207 0.419,-0.228 0.419,-0.251C0.419,-0.276 0.419,-0.298 0.418,-0.318C0.417,-0.337 0.416,-0.352 0.414,-0.361C0.407,-0.395 0.39,-0.423 0.364,-0.444C0.337,-0.465 0.305,-0.475 0.266,-0.475C0.228,-0.475 0.196,-0.465 0.17,-0.444C0.144,-0.423 0.127,-0.395 0.12,-0.361C0.116,-0.344 0.114,-0.307 0.114,-0.251C0.114,-0.194 0.116,-0.158 0.12,-0.141C0.127,-0.106 0.143,-0.079 0.169,-0.058C0.195,-0.037 0.227,-0.027 0.266,-0.027Z" style="fill-rule:nonzero;"/>
                </g>
                <g transform="matrix(12,0,0,12,296.705,220.811)">
                    <path d="M0.29,-0.478C0.29,-0.471 0.287,-0.468 0.28,-0.468L0.159,-0.468C0.156,-0.468 0.155,-0.467 0.155,-0.464L0.155,-0.132C0.155,-0.096 0.163,-0.071 0.18,-0.057C0.197,-0.042 0.223,-0.035 0.258,-0.035L0.28,-0.035C0.287,-0.035 0.29,-0.032 0.29,-0.025L0.29,-0.01C0.29,-0.003 0.287,0 0.28,0L0.255,0C0.21,0 0.176,-0.009 0.153,-0.027C0.129,-0.045 0.117,-0.078 0.117,-0.125L0.117,-0.464C0.117,-0.467 0.116,-0.468 0.113,-0.468L0.052,-0.468C0.045,-0.468 0.042,-0.471 0.042,-0.478L0.042,-0.492C0.042,-0.499 0.045,-0.502 0.052,-0.502L0.113,-0.502C0.116,-0.502 0.117,-0.503 0.117,-0.506L0.117,-0.619C0.117,-0.626 0.12,-0.629 0.127,-0.629L0.145,-0.629C0.152,-0.629 0.155,-0.626 0.155,-0.619L0.155,-0.506C0.155,-0.503 0.156,-0.502 0.159,-0.502L0.28,-0.502C0.287,-0.502 0.29,-0.499 0.29,-0.492L0.29,-0.478Z" style="fill-rule:nonzero;"/>
                </g>
                <g transform="matrix(12,0,0,12,300.761,220.811)">
                    <path d="M0.269,0.008C0.222,0.008 0.183,-0.004 0.151,-0.029C0.119,-0.053 0.098,-0.085 0.087,-0.126C0.079,-0.155 0.075,-0.197 0.075,-0.252C0.075,-0.303 0.079,-0.345 0.087,-0.377C0.097,-0.417 0.118,-0.449 0.151,-0.473C0.183,-0.498 0.222,-0.51 0.269,-0.51C0.315,-0.51 0.355,-0.498 0.388,-0.474C0.421,-0.451 0.443,-0.421 0.452,-0.386C0.454,-0.381 0.456,-0.372 0.457,-0.36L0.457,-0.358C0.457,-0.353 0.454,-0.35 0.448,-0.349L0.43,-0.347L0.428,-0.347C0.423,-0.347 0.42,-0.35 0.419,-0.356L0.416,-0.37C0.41,-0.4 0.394,-0.425 0.367,-0.445C0.34,-0.465 0.307,-0.475 0.268,-0.475C0.229,-0.475 0.197,-0.465 0.171,-0.444C0.145,-0.423 0.129,-0.396 0.123,-0.362C0.117,-0.335 0.114,-0.298 0.114,-0.251C0.114,-0.206 0.117,-0.169 0.122,-0.141C0.129,-0.107 0.146,-0.08 0.172,-0.059C0.197,-0.038 0.229,-0.027 0.268,-0.027C0.307,-0.027 0.34,-0.037 0.367,-0.058C0.394,-0.078 0.411,-0.103 0.416,-0.133L0.417,-0.138C0.418,-0.145 0.422,-0.147 0.429,-0.146L0.446,-0.143C0.453,-0.142 0.456,-0.138 0.455,-0.132C0.454,-0.131 0.454,-0.129 0.454,-0.126C0.454,-0.123 0.453,-0.12 0.452,-0.116C0.444,-0.08 0.423,-0.05 0.39,-0.027C0.356,-0.004 0.316,0.008 0.269,0.008Z" style="fill-rule:nonzero;"/>
                </g>
                <g transform="matrix(12,0,0,12,306.893,220.811)">
                    <path d="M0.266,0.008C0.22,0.008 0.181,-0.004 0.149,-0.029C0.117,-0.053 0.095,-0.085 0.084,-0.126C0.08,-0.141 0.078,-0.159 0.077,-0.178C0.076,-0.197 0.075,-0.221 0.075,-0.252C0.075,-0.283 0.076,-0.308 0.077,-0.327C0.078,-0.346 0.08,-0.362 0.084,-0.377C0.095,-0.417 0.116,-0.449 0.149,-0.473C0.181,-0.498 0.22,-0.51 0.267,-0.51C0.314,-0.51 0.354,-0.498 0.387,-0.473C0.42,-0.449 0.441,-0.417 0.45,-0.377C0.453,-0.362 0.456,-0.346 0.457,-0.328C0.458,-0.31 0.458,-0.285 0.458,-0.252C0.458,-0.218 0.458,-0.192 0.457,-0.174C0.456,-0.157 0.453,-0.141 0.45,-0.126C0.44,-0.085 0.419,-0.053 0.386,-0.029C0.353,-0.004 0.313,0.008 0.266,0.008ZM0.266,-0.027C0.305,-0.027 0.337,-0.038 0.364,-0.059C0.39,-0.08 0.407,-0.107 0.414,-0.141C0.416,-0.151 0.417,-0.166 0.418,-0.187C0.419,-0.207 0.419,-0.228 0.419,-0.251C0.419,-0.276 0.419,-0.298 0.418,-0.318C0.417,-0.337 0.416,-0.352 0.414,-0.361C0.407,-0.395 0.39,-0.423 0.364,-0.444C0.337,-0.465 0.305,-0.475 0.266,-0.475C0.228,-0.475 0.196,-0.465 0.17,-0.444C0.144,-0.423 0.127,-0.395 0.12,-0.361C0.116,-0.344 0.114,-0.307 0.114,-0.251C0.114,-0.194 0.116,-0.158 0.12,-0.141C0.127,-0.106 0.143,-0.079 0.169,-0.058C0.195,-0.037 0.227,-0.027 0.266,-0.027Z" style="fill-rule:nonzero;"/>
                </g>
                <g transform="matrix(12,0,0,12,313.289,220.811)">
                    <path d="M0.405,-0.69C0.405,-0.697 0.408,-0.7 0.415,-0.7L0.434,-0.7C0.441,-0.7 0.444,-0.697 0.444,-0.69L0.444,-0.01C0.444,-0.003 0.441,0 0.434,0L0.415,0C0.408,0 0.405,-0.003 0.405,-0.01L0.405,-0.065C0.405,-0.067 0.405,-0.068 0.404,-0.068C0.403,-0.068 0.401,-0.067 0.4,-0.066C0.385,-0.043 0.366,-0.025 0.342,-0.012C0.317,0.001 0.29,0.008 0.26,0.008C0.215,0.008 0.177,-0.004 0.146,-0.028C0.115,-0.052 0.094,-0.084 0.084,-0.124C0.08,-0.139 0.078,-0.156 0.077,-0.175C0.076,-0.194 0.075,-0.219 0.075,-0.25C0.075,-0.281 0.076,-0.306 0.077,-0.325C0.078,-0.344 0.08,-0.362 0.084,-0.377C0.093,-0.417 0.114,-0.449 0.145,-0.473C0.175,-0.498 0.214,-0.51 0.26,-0.51C0.291,-0.51 0.318,-0.503 0.342,-0.491C0.366,-0.477 0.385,-0.46 0.4,-0.437C0.401,-0.436 0.403,-0.435 0.404,-0.435C0.405,-0.435 0.405,-0.436 0.405,-0.438L0.405,-0.69ZM0.396,-0.134C0.399,-0.146 0.402,-0.159 0.403,-0.173C0.404,-0.188 0.405,-0.213 0.405,-0.25C0.405,-0.287 0.404,-0.313 0.403,-0.328C0.402,-0.342 0.399,-0.356 0.396,-0.369C0.39,-0.4 0.375,-0.425 0.352,-0.445C0.329,-0.465 0.299,-0.475 0.264,-0.475C0.229,-0.475 0.199,-0.465 0.173,-0.446C0.149,-0.426 0.132,-0.401 0.125,-0.37C0.121,-0.358 0.118,-0.345 0.117,-0.33C0.116,-0.315 0.115,-0.289 0.115,-0.252C0.115,-0.214 0.116,-0.188 0.117,-0.173C0.117,-0.159 0.12,-0.146 0.123,-0.134C0.129,-0.103 0.145,-0.077 0.171,-0.057C0.197,-0.037 0.228,-0.027 0.264,-0.027C0.299,-0.027 0.329,-0.037 0.352,-0.058C0.375,-0.078 0.389,-0.103 0.396,-0.134Z" style="fill-rule:nonzero;"/>
                </g>
                <g transform="matrix(12,0,0,12,319.733,220.811)">
                    <path d="M0.128,-0.61C0.115,-0.61 0.104,-0.614 0.095,-0.623C0.086,-0.632 0.082,-0.642 0.082,-0.655C0.082,-0.668 0.086,-0.679 0.095,-0.688C0.104,-0.697 0.115,-0.701 0.128,-0.701C0.141,-0.701 0.152,-0.697 0.161,-0.688C0.17,-0.679 0.174,-0.668 0.174,-0.655C0.174,-0.642 0.17,-0.632 0.161,-0.623C0.152,-0.614 0.141,-0.61 0.128,-0.61ZM0.116,-0.001C0.109,-0.001 0.106,-0.004 0.106,-0.011L0.106,-0.493C0.106,-0.5 0.109,-0.503 0.116,-0.503L0.135,-0.503C0.142,-0.503 0.145,-0.5 0.145,-0.493L0.145,-0.011C0.145,-0.004 0.142,-0.001 0.135,-0.001L0.116,-0.001Z" style="fill-rule:nonzero;"/>
                </g>
                <g transform="matrix(12,0,0,12,322.805,220.811)">
                    <path d="M0.282,-0.509C0.332,-0.509 0.373,-0.494 0.404,-0.463C0.435,-0.432 0.451,-0.391 0.451,-0.34L0.451,-0.01C0.451,-0.003 0.448,0 0.441,0L0.422,0C0.415,0 0.412,-0.003 0.412,-0.01L0.412,-0.333C0.412,-0.374 0.399,-0.408 0.374,-0.435C0.349,-0.461 0.316,-0.474 0.275,-0.474C0.232,-0.474 0.197,-0.461 0.171,-0.436C0.144,-0.41 0.131,-0.376 0.131,-0.335L0.131,-0.01C0.131,-0.003 0.128,0 0.121,0L0.102,0C0.095,0 0.092,-0.003 0.092,-0.01L0.092,-0.492C0.092,-0.499 0.095,-0.502 0.102,-0.502L0.121,-0.502C0.128,-0.502 0.131,-0.499 0.131,-0.492L0.131,-0.438C0.131,-0.436 0.132,-0.435 0.133,-0.435C0.134,-0.434 0.134,-0.435 0.135,-0.436C0.15,-0.459 0.17,-0.477 0.195,-0.49C0.22,-0.503 0.249,-0.509 0.282,-0.509Z" style="fill-rule:nonzero;"/>
                </g>
                <g transform="matrix(12,0,0,12,329.237,220.811)">
                    <path d="M0.404,-0.492C0.404,-0.499 0.407,-0.502 0.414,-0.502L0.433,-0.502C0.44,-0.502 0.443,-0.499 0.443,-0.492L0.443,-0.006C0.443,0.065 0.422,0.118 0.38,0.152C0.338,0.186 0.277,0.202 0.196,0.199C0.189,0.199 0.186,0.196 0.186,0.189L0.187,0.172C0.187,0.165 0.19,0.162 0.197,0.162C0.268,0.164 0.321,0.151 0.354,0.123C0.387,0.095 0.404,0.052 0.404,-0.007L0.404,-0.067C0.404,-0.069 0.404,-0.07 0.403,-0.07C0.402,-0.07 0.4,-0.069 0.399,-0.068C0.385,-0.045 0.366,-0.027 0.343,-0.014C0.319,-0.001 0.291,0.006 0.258,0.006C0.214,0.006 0.176,-0.006 0.145,-0.029C0.114,-0.053 0.093,-0.085 0.082,-0.126C0.075,-0.153 0.071,-0.194 0.071,-0.25C0.071,-0.306 0.075,-0.349 0.082,-0.379C0.093,-0.418 0.114,-0.45 0.145,-0.474C0.175,-0.498 0.213,-0.51 0.257,-0.51C0.289,-0.51 0.317,-0.503 0.341,-0.491C0.365,-0.477 0.384,-0.46 0.399,-0.437C0.4,-0.435 0.401,-0.434 0.402,-0.435C0.403,-0.435 0.404,-0.436 0.404,-0.438L0.404,-0.492ZM0.4,-0.141C0.401,-0.152 0.402,-0.165 0.403,-0.18C0.404,-0.195 0.404,-0.218 0.404,-0.251C0.404,-0.284 0.404,-0.308 0.403,-0.323C0.402,-0.338 0.401,-0.351 0.4,-0.362C0.395,-0.395 0.38,-0.422 0.356,-0.443C0.331,-0.464 0.3,-0.475 0.263,-0.475C0.226,-0.475 0.196,-0.464 0.171,-0.443C0.146,-0.422 0.128,-0.395 0.119,-0.362C0.114,-0.341 0.111,-0.304 0.111,-0.252C0.111,-0.197 0.114,-0.161 0.119,-0.142C0.127,-0.109 0.144,-0.081 0.17,-0.06C0.195,-0.039 0.226,-0.028 0.263,-0.028C0.301,-0.028 0.332,-0.039 0.356,-0.061C0.38,-0.082 0.395,-0.109 0.4,-0.141Z" style="fill-rule:nonzero;"/>
                </g>
                <g transform="matrix(12,0,0,12,337.949,220.811)">
                    <path d="M0.29,-0.478C0.29,-0.471 0.287,-0.468 0.28,-0.468L0.159,-0.468C0.156,-0.468 0.155,-0.467 0.155,-0.464L0.155,-0.132C0.155,-0.096 0.163,-0.071 0.18,-0.057C0.197,-0.042 0.223,-0.035 0.258,-0.035L0.28,-0.035C0.287,-0.035 0.29,-0.032 0.29,-0.025L0.29,-0.01C0.29,-0.003 0.287,0 0.28,0L0.255,0C0.21,0 0.176,-0.009 0.153,-0.027C0.129,-0.045 0.117,-0.078 0.117,-0.125L0.117,-0.464C0.117,-0.467 0.116,-0.468 0.113,-0.468L0.052,-0.468C0.045,-0.468 0.042,-0.471 0.042,-0.478L0.042,-0.492C0.042,-0.499 0.045,-0.502 0.052,-0.502L0.113,-0.502C0.116,-0.502 0.117,-0.503 0.117,-0.506L0.117,-0.619C0.117,-0.626 0.12,-0.629 0.127,-0.629L0.145,-0.629C0.152,-0.629 0.155,-0.626 0.155,-0.619L0.155,-0.506C0.155,-0.503 0.156,-0.502 0.159,-0.502L0.28,-0.502C0.287,-0.502 0.29,-0.499 0.29,-0.492L0.29,-0.478Z" style="fill-rule:nonzero;"/>
                </g>
                <g transform="matrix(12,0,0,12,342.005,220.811)">
                    <path d="M0.266,0.008C0.22,0.008 0.181,-0.004 0.149,-0.029C0.117,-0.053 0.095,-0.085 0.084,-0.126C0.08,-0.141 0.078,-0.159 0.077,-0.178C0.076,-0.197 0.075,-0.221 0.075,-0.252C0.075,-0.283 0.076,-0.308 0.077,-0.327C0.078,-0.346 0.08,-0.362 0.084,-0.377C0.095,-0.417 0.116,-0.449 0.149,-0.473C0.181,-0.498 0.22,-0.51 0.267,-0.51C0.314,-0.51 0.354,-0.498 0.387,-0.473C0.42,-0.449 0.441,-0.417 0.45,-0.377C0.453,-0.362 0.456,-0.346 0.457,-0.328C0.458,-0.31 0.458,-0.285 0.458,-0.252C0.458,-0.218 0.458,-0.192 0.457,-0.174C0.456,-0.157 0.453,-0.141 0.45,-0.126C0.44,-0.085 0.419,-0.053 0.386,-0.029C0.353,-0.004 0.313,0.008 0.266,0.008ZM0.266,-0.027C0.305,-0.027 0.337,-0.038 0.364,-0.059C0.39,-0.08 0.407,-0.107 0.414,-0.141C0.416,-0.151 0.417,-0.166 0.418,-0.187C0.419,-0.207 0.419,-0.228 0.419,-0.251C0.419,-0.276 0.419,-0.298 0.418,-0.318C0.417,-0.337 0.416,-0.352 0.414,-0.361C0.407,-0.395 0.39,-0.423 0.364,-0.444C0.337,-0.465 0.305,-0.475 0.266,-0.475C0.228,-0.475 0.196,-0.465 0.17,-0.444C0.144,-0.423 0.127,-0.395 0.12,-0.361C0.116,-0.344 0.114,-0.307 0.114,-0.251C0.114,-0.194 0.116,-0.158 0.12,-0.141C0.127,-0.106 0.143,-0.079 0.169,-0.058C0.195,-0.037 0.227,-0.027 0.266,-0.027Z" style="fill-rule:nonzero;"/>
                </g>
                <g transform="matrix(12,0,0,12,348.401,220.811)">
                    <path d="M0.405,-0.69C0.405,-0.697 0.408,-0.7 0.415,-0.7L0.434,-0.7C0.441,-0.7 0.444,-0.697 0.444,-0.69L0.444,-0.01C0.444,-0.003 0.441,0 0.434,0L0.415,0C0.408,0 0.405,-0.003 0.405,-0.01L0.405,-0.065C0.405,-0.067 0.405,-0.068 0.404,-0.068C0.403,-0.068 0.401,-0.067 0.4,-0.066C0.385,-0.043 0.366,-0.025 0.342,-0.012C0.317,0.001 0.29,0.008 0.26,0.008C0.215,0.008 0.177,-0.004 0.146,-0.028C0.115,-0.052 0.094,-0.084 0.084,-0.124C0.08,-0.139 0.078,-0.156 0.077,-0.175C0.076,-0.194 0.075,-0.219 0.075,-0.25C0.075,-0.281 0.076,-0.306 0.077,-0.325C0.078,-0.344 0.08,-0.362 0.084,-0.377C0.093,-0.417 0.114,-0.449 0.145,-0.473C0.175,-0.498 0.214,-0.51 0.26,-0.51C0.291,-0.51 0.318,-0.503 0.342,-0.491C0.366,-0.477 0.385,-0.46 0.4,-0.437C0.401,-0.436 0.403,-0.435 0.404,-0.435C0.405,-0.435 0.405,-0.436 0.405,-0.438L0.405,-0.69ZM0.396,-0.134C0.399,-0.146 0.402,-0.159 0.403,-0.173C0.404,-0.188 0.405,-0.213 0.405,-0.25C0.405,-0.287 0.404,-0.313 0.403,-0.328C0.402,-0.342 0.399,-0.356 0.396,-0.369C0.39,-0.4 0.375,-0.425 0.352,-0.445C0.329,-0.465 0.299,-0.475 0.264,-0.475C0.229,-0.475 0.199,-0.465 0.173,-0.446C0.149,-0.426 0.132,-0.401 0.125,-0.37C0.121,-0.358 0.118,-0.345 0.117,-0.33C0.116,-0.315 0.115,-0.289 0.115,-0.252C0.115,-0.214 0.116,-0.188 0.117,-0.173C0.117,-0.159 0.12,-0.146 0.123,-0.134C0.129,-0.103 0.145,-0.077 0.171,-0.057C0.197,-0.037 0.228,-0.027 0.264,-0.027C0.299,-0.027 0.329,-0.037 0.352,-0.058C0.375,-0.078 0.389,-0.103 0.396,-0.134Z" style="fill-rule:nonzero;"/>
                </g>
                <g transform="matrix(12,0,0,12,354.845,220.811)">
                    <path d="M0.253,-0.51C0.31,-0.51 0.354,-0.495 0.383,-0.466C0.411,-0.436 0.426,-0.395 0.426,-0.343L0.426,-0.01C0.426,-0.003 0.423,0 0.416,0L0.397,0C0.39,0 0.387,-0.003 0.387,-0.01L0.387,-0.06C0.387,-0.061 0.387,-0.062 0.386,-0.063C0.385,-0.063 0.383,-0.062 0.382,-0.061C0.365,-0.038 0.343,-0.021 0.314,-0.01C0.284,0.002 0.253,0.008 0.219,0.008C0.173,0.008 0.134,-0.003 0.102,-0.025C0.071,-0.048 0.055,-0.083 0.055,-0.131C0.055,-0.18 0.073,-0.219 0.11,-0.247C0.146,-0.274 0.196,-0.288 0.26,-0.288L0.383,-0.288C0.386,-0.288 0.387,-0.289 0.387,-0.292L0.387,-0.344C0.387,-0.384 0.376,-0.416 0.354,-0.44C0.332,-0.463 0.298,-0.475 0.251,-0.475C0.215,-0.475 0.185,-0.468 0.162,-0.453C0.139,-0.438 0.124,-0.417 0.119,-0.392C0.117,-0.385 0.113,-0.382 0.107,-0.383L0.086,-0.386C0.083,-0.387 0.081,-0.388 0.079,-0.39C0.077,-0.391 0.076,-0.393 0.077,-0.395C0.084,-0.43 0.103,-0.458 0.135,-0.478C0.166,-0.5 0.206,-0.51 0.253,-0.51ZM0.223,-0.027C0.267,-0.027 0.305,-0.038 0.338,-0.059C0.371,-0.08 0.387,-0.11 0.387,-0.149L0.387,-0.251C0.387,-0.254 0.386,-0.255 0.383,-0.255L0.262,-0.255C0.212,-0.255 0.172,-0.244 0.141,-0.223C0.11,-0.201 0.094,-0.171 0.094,-0.133C0.094,-0.098 0.106,-0.072 0.13,-0.054C0.154,-0.036 0.185,-0.027 0.223,-0.027Z" style="fill-rule:nonzero;"/>
                </g>
                <g transform="matrix(12,0,0,12,360.845,220.811)">
                    <path d="M0.061,0.2C0.056,0.2 0.054,0.197 0.054,0.19L0.054,0.175C0.054,0.168 0.057,0.165 0.064,0.165L0.068,0.165C0.093,0.164 0.113,0.16 0.127,0.151C0.14,0.143 0.152,0.128 0.163,0.107C0.173,0.086 0.186,0.051 0.202,0.003C0.203,0 0.203,-0.002 0.202,-0.003L0.029,-0.491L0.028,-0.495C0.028,-0.5 0.031,-0.502 0.037,-0.502L0.056,-0.502C0.062,-0.502 0.066,-0.499 0.068,-0.494L0.219,-0.055C0.22,-0.054 0.221,-0.053 0.222,-0.053C0.223,-0.053 0.224,-0.054 0.225,-0.055L0.373,-0.494C0.375,-0.499 0.379,-0.502 0.385,-0.502L0.404,-0.502C0.411,-0.502 0.414,-0.498 0.412,-0.491L0.22,0.056C0.205,0.098 0.192,0.129 0.179,0.149C0.166,0.169 0.152,0.182 0.136,0.189C0.119,0.196 0.097,0.2 0.068,0.2L0.061,0.2Z" style="fill-rule:nonzero;"/>
                </g>
            </g>
        </g>
        <g transform="matrix(-0.0502437,-6.15308e-18,7.58403e-18,-0.0619283,450.627,251.426)">
            <path d="M353.012,322.015L422.673,435.049L283.352,435.049L353.012,322.015Z" style="fill:rgb(235,235,235);fill-opacity:0;stroke:black;stroke-width:17.73px;"/>
        </g>
        <g transform="matrix(0.0502437,0,0,0.0619283,335.158,164.028)">
            <path d="M353.012,322.015L422.673,435.049L283.352,435.049L353.012,322.015Z"/>
        </g>
        <g transform="matrix(5.07875,0,0,5.07875,-1321.57,-888.238)">
            <g transform="matrix(12,0,0,12,284.009,220.811)">
                <path d="M0.046,0C0.043,0 0.04,-0.001 0.039,-0.003C0.037,-0.005 0.036,-0.008 0.037,-0.011L0.242,-0.692C0.244,-0.697 0.248,-0.7 0.254,-0.7L0.272,-0.7C0.275,-0.7 0.278,-0.699 0.28,-0.697C0.281,-0.695 0.282,-0.692 0.281,-0.689L0.076,-0.008C0.074,-0.003 0.07,0 0.064,0L0.046,0Z" style="fill-rule:nonzero;"/>
            </g>
            <g transform="matrix(12,0,0,12,288.425,220.811)">
                <path d="M0.046,0C0.043,0 0.04,-0.001 0.039,-0.003C0.037,-0.005 0.036,-0.008 0.037,-0.011L0.242,-0.692C0.244,-0.697 0.248,-0.7 0.254,-0.7L0.272,-0.7C0.275,-0.7 0.278,-0.699 0.28,-0.697C0.281,-0.695 0.282,-0.692 0.281,-0.689L0.076,-0.008C0.074,-0.003 0.07,0 0.064,0L0.046,0Z" style="fill-rule:nonzero;"/>
            </g>
        </g>
    </g>
</svg>
